<svg width="272" height="49" viewBox="0 0 272 49" fill="none" xmlns="http://www.w3.org/2000/svg">
<path d="M79.5039 18.7841H86.957C88.1992 18.7841 89.1514 19.0917 89.8135 19.7069C90.4814 20.3222 90.8154 21.0839 90.8154 21.9921C90.8154 22.7538 90.5781 23.4071 90.1035 23.9521C89.7871 24.3153 89.3242 24.6024 88.7148 24.8134C89.6406 25.036 90.3203 25.4198 90.7539 25.9648C91.1934 26.5038 91.4131 27.1835 91.4131 28.0038C91.4131 28.6718 91.2578 29.2724 90.9473 29.8056C90.6367 30.3388 90.2119 30.7607 89.6729 31.0712C89.3389 31.2646 88.835 31.4052 88.1611 31.4931C87.2646 31.6103 86.6699 31.6689 86.377 31.6689H79.5039V18.7841ZM83.5205 23.8378H85.252C85.873 23.8378 86.3037 23.7323 86.5439 23.5214C86.79 23.3046 86.9131 22.994 86.9131 22.5898C86.9131 22.2148 86.79 21.9218 86.5439 21.7108C86.3037 21.4999 85.8818 21.3944 85.2783 21.3944H83.5205V23.8378ZM83.5205 28.9003H85.5508C86.2363 28.9003 86.7197 28.7802 87.001 28.5399C87.2822 28.2939 87.4229 27.9657 87.4229 27.5556C87.4229 27.1747 87.2822 26.87 87.001 26.6415C86.7256 26.4071 86.2393 26.2899 85.542 26.2899H83.5205V28.9003ZM111.232 31.6689H106.75L105.203 28.3378C104.834 27.5526 104.547 27.0634 104.342 26.87C104.137 26.6708 103.853 26.5712 103.489 26.5712V31.6689H99.5166V18.7841H103.489V23.7323C103.835 23.7148 104.104 23.5917 104.298 23.3632C104.491 23.1347 104.793 22.4784 105.203 21.3944C105.502 20.5917 105.804 20.0175 106.108 19.6718C106.413 19.3202 106.908 19.0683 107.594 18.9159C108.279 18.7636 109.354 18.6874 110.819 18.6874V21.412H110.617C109.938 21.412 109.434 21.5409 109.105 21.7987C108.777 22.0565 108.508 22.4755 108.297 23.0556C108.086 23.6298 107.857 24.0605 107.611 24.3476C107.371 24.6288 107.04 24.8544 106.618 25.0243C107.192 25.2118 107.693 25.537 108.121 25.9999C108.549 26.4569 109.003 27.1718 109.483 28.1444L111.232 31.6689ZM112.164 25.2353C112.164 23.1317 112.75 21.494 113.922 20.3222C115.094 19.1503 116.726 18.5644 118.817 18.5644C120.962 18.5644 122.614 19.1415 123.774 20.2958C124.935 21.4442 125.515 23.0556 125.515 25.1298C125.515 26.6357 125.26 27.872 124.75 28.8388C124.246 29.7997 123.514 30.5497 122.553 31.0888C121.598 31.622 120.405 31.8886 118.976 31.8886C117.522 31.8886 116.318 31.6571 115.363 31.1942C114.414 30.7314 113.644 29.9989 113.052 28.997C112.46 27.995 112.164 26.7411 112.164 25.2353ZM116.146 25.2528C116.146 26.5536 116.386 27.4882 116.866 28.0565C117.353 28.6249 118.012 28.9091 118.844 28.9091C119.699 28.9091 120.361 28.6308 120.83 28.0741C121.299 27.5175 121.533 26.5185 121.533 25.0771C121.533 23.8642 121.287 22.9794 120.795 22.4228C120.309 21.8603 119.646 21.579 118.809 21.579C118.006 21.579 117.361 21.8632 116.875 22.4315C116.389 22.9999 116.146 23.9403 116.146 25.2528ZM127.642 18.7841H134.26C135.701 18.7841 136.779 19.1269 137.494 19.8124C138.215 20.498 138.575 21.4735 138.575 22.7392C138.575 24.0399 138.183 25.0565 137.397 25.789C136.618 26.5214 135.426 26.8876 133.82 26.8876H131.641V31.6689H127.642V18.7841ZM131.641 24.2773H132.616C133.384 24.2773 133.923 24.1454 134.233 23.8817C134.544 23.6122 134.699 23.2694 134.699 22.8534C134.699 22.4491 134.564 22.1064 134.295 21.8251C134.025 21.5439 133.519 21.4032 132.774 21.4032H131.641V24.2773ZM148.744 24.664C150.291 25.08 151.064 26.0526 151.064 27.5819C151.064 28.8417 150.578 29.8759 149.605 30.6845C148.639 31.4872 147.271 31.8886 145.501 31.8886C142.478 31.8886 140.6 30.62 139.867 28.0829L143.629 27.8017C143.84 28.6982 144.44 29.1464 145.431 29.1464C145.981 29.1464 146.397 29.0087 146.679 28.7333C146.966 28.4579 147.109 28.0741 147.109 27.5819C147.109 27.1073 146.931 26.7235 146.573 26.4306C146.216 26.1317 145.727 25.9823 145.105 25.9823H144.024V23.6796H144.877C145.387 23.6796 145.785 23.5478 146.072 23.2841C146.365 23.0146 146.512 22.6425 146.512 22.1679C146.512 21.4706 146.075 21.122 145.202 21.122C144.3 21.122 143.775 21.5233 143.629 22.3261L140.069 21.913C140.649 19.6806 142.384 18.5644 145.272 18.5644C146.872 18.5644 148.126 18.8749 149.034 19.496C149.942 20.1171 150.396 20.9521 150.396 22.0009C150.396 23.2665 149.846 24.1542 148.744 24.664ZM165.391 18.7841V31.6689H161.646V24.5937L156.821 31.6689H153.068V18.7841H156.821V25.912L161.673 18.7841H165.391ZM168.071 18.7841H172.053V23.2929H176.403V18.7841H180.402V31.6689H176.403V26.4569H172.053V31.6689H168.071V18.7841ZM181.835 18.7841H186.159L187.943 24.0927L189.701 18.7841H193.753L189.525 28.7333C189.18 29.536 188.878 30.1366 188.62 30.5351C188.362 30.9276 187.979 31.2528 187.469 31.5107C186.965 31.7626 186.271 31.8886 185.386 31.8886C184.917 31.8886 184.111 31.8212 182.969 31.6864V29.0233C183.643 29.0937 184.135 29.1288 184.445 29.1288C185.365 29.1288 185.925 28.786 186.124 28.1005L181.835 18.7841Z" fill="#42940F"/>
<rect x="1" y="1.66885" width="270" height="46" rx="7" stroke="#42940F" stroke-width="2"/>
</svg>
