<svg width="272" height="49" viewBox="0 0 272 49" fill="none" xmlns="http://www.w3.org/2000/svg">
<rect x="0.5" y="1.16885" width="271" height="47" rx="7.5" fill="#4E4E4E"/>
<path d="M67.1729 24.664C68.7197 25.08 69.4932 26.0526 69.4932 27.5819C69.4932 28.8417 69.0068 29.8759 68.0342 30.6845C67.0674 31.4872 65.6992 31.8886 63.9297 31.8886C60.9062 31.8886 59.0283 30.62 58.2959 28.0829L62.0576 27.8017C62.2686 28.6982 62.8691 29.1464 63.8594 29.1464C64.4102 29.1464 64.8262 29.0087 65.1074 28.7333C65.3945 28.4579 65.5381 28.0741 65.5381 27.5819C65.5381 27.1073 65.3594 26.7235 65.002 26.4306C64.6445 26.1317 64.1553 25.9823 63.5342 25.9823H62.4531V23.6796H63.3057C63.8154 23.6796 64.2139 23.5478 64.501 23.2841C64.7939 23.0146 64.9404 22.6425 64.9404 22.1679C64.9404 21.4706 64.5039 21.122 63.6309 21.122C62.7285 21.122 62.2041 21.5233 62.0576 22.3261L58.498 21.913C59.0781 19.6806 60.8125 18.5644 63.7012 18.5644C65.3008 18.5644 66.5547 18.8749 67.4629 19.496C68.3711 20.1171 68.8252 20.9521 68.8252 22.0009C68.8252 23.2665 68.2744 24.1542 67.1729 24.664ZM79.416 29.5419H74.8809L74.2568 31.6689H70.1875L75.0303 18.7841H79.3721L84.2148 31.6689H80.0488L79.416 29.5419ZM78.5811 26.7558L77.1572 22.1239L75.7422 26.7558H78.5811ZM97.2139 31.6689H92.7314L91.1846 28.3378C90.8154 27.5526 90.5283 27.0634 90.3232 26.87C90.1182 26.6708 89.834 26.5712 89.4707 26.5712V31.6689H85.498V18.7841H89.4707V23.7323C89.8164 23.7148 90.0859 23.5917 90.2793 23.3632C90.4727 23.1347 90.7744 22.4784 91.1846 21.3944C91.4834 20.5917 91.7852 20.0175 92.0898 19.6718C92.3945 19.3202 92.8896 19.0683 93.5752 18.9159C94.2607 18.7636 95.3359 18.6874 96.8008 18.6874V21.412H96.5986C95.9189 21.412 95.415 21.5409 95.0869 21.7987C94.7588 22.0565 94.4893 22.4755 94.2783 23.0556C94.0674 23.6298 93.8389 24.0605 93.5928 24.3476C93.3525 24.6288 93.0215 24.8544 92.5996 25.0243C93.1738 25.2118 93.6748 25.537 94.1025 25.9999C94.5303 26.4569 94.9844 27.1718 95.4648 28.1444L97.2139 31.6689ZM98.1455 25.2353C98.1455 23.1317 98.7314 21.494 99.9033 20.3222C101.075 19.1503 102.707 18.5644 104.799 18.5644C106.943 18.5644 108.596 19.1415 109.756 20.2958C110.916 21.4442 111.496 23.0556 111.496 25.1298C111.496 26.6357 111.241 27.872 110.731 28.8388C110.228 29.7997 109.495 30.5497 108.534 31.0888C107.579 31.622 106.387 31.8886 104.957 31.8886C103.504 31.8886 102.3 31.6571 101.345 31.1942C100.396 30.7314 99.625 29.9989 99.0332 28.997C98.4414 27.995 98.1455 26.7411 98.1455 25.2353ZM102.127 25.2528C102.127 26.5536 102.367 27.4882 102.848 28.0565C103.334 28.6249 103.993 28.9091 104.825 28.9091C105.681 28.9091 106.343 28.6308 106.812 28.0741C107.28 27.5175 107.515 26.5185 107.515 25.0771C107.515 23.8642 107.269 22.9794 106.776 22.4228C106.29 21.8603 105.628 21.579 104.79 21.579C103.987 21.579 103.343 21.8632 102.856 22.4315C102.37 22.9999 102.127 23.9403 102.127 25.2528ZM113.658 18.7841H117.64V23.2929H121.99V18.7841H125.989V31.6689H121.99V26.4569H117.64V31.6689H113.658V18.7841ZM140.474 31.6689H136.492V26.8788C135.273 27.5526 134.116 27.8896 133.021 27.8896C131.708 27.8896 130.627 27.5028 129.777 26.7294C128.928 25.9501 128.503 24.8837 128.503 23.5302V18.7841H132.484V22.7392C132.484 23.3661 132.634 23.8495 132.933 24.1894C133.231 24.5292 133.662 24.6991 134.225 24.6991C135.268 24.6991 136.023 24.3886 136.492 23.7675V18.7841H140.474V31.6689ZM155.45 18.7841V31.6689H151.706V24.5937L146.881 31.6689H143.128V18.7841H146.881V25.912L151.732 18.7841H155.45ZM169.952 31.6689H165.971V21.9482H162.859V25.912C162.859 27.5409 162.771 28.7392 162.596 29.5067C162.426 30.2685 162.021 30.828 161.383 31.1855C160.75 31.5429 159.725 31.7216 158.307 31.7216C157.873 31.7216 157.375 31.6747 156.812 31.581V28.9706H157.41C157.949 28.9706 158.33 28.8534 158.553 28.619C158.775 28.3788 158.887 27.9423 158.887 27.3095V18.7841H169.952V31.6689ZM172.097 25.2353C172.097 23.1317 172.683 21.494 173.854 20.3222C175.026 19.1503 176.658 18.5644 178.75 18.5644C180.895 18.5644 182.547 19.1415 183.707 20.2958C184.867 21.4442 185.447 23.0556 185.447 25.1298C185.447 26.6357 185.192 27.872 184.683 28.8388C184.179 29.7997 183.446 30.5497 182.485 31.0888C181.53 31.622 180.338 31.8886 178.908 31.8886C177.455 31.8886 176.251 31.6571 175.296 31.1942C174.347 30.7314 173.576 29.9989 172.984 28.997C172.393 27.995 172.097 26.7411 172.097 25.2353ZM176.078 25.2528C176.078 26.5536 176.318 27.4882 176.799 28.0565C177.285 28.6249 177.944 28.9091 178.776 28.9091C179.632 28.9091 180.294 28.6308 180.763 28.0741C181.231 27.5175 181.466 26.5185 181.466 25.0771C181.466 23.8642 181.22 22.9794 180.728 22.4228C180.241 21.8603 179.579 21.579 178.741 21.579C177.938 21.579 177.294 21.8632 176.808 22.4315C176.321 22.9999 176.078 23.9403 176.078 25.2528ZM196.17 26.4042L199.659 27.4589C199.425 28.4374 199.056 29.2548 198.552 29.911C198.048 30.5673 197.421 31.0624 196.671 31.3964C195.927 31.7304 194.978 31.8974 193.823 31.8974C192.423 31.8974 191.277 31.6952 190.387 31.2909C189.502 30.8808 188.737 30.163 188.093 29.1376C187.448 28.1122 187.126 26.7997 187.126 25.2001C187.126 23.0673 187.691 21.4296 188.822 20.287C189.959 19.1386 191.564 18.5644 193.639 18.5644C195.262 18.5644 196.536 18.8925 197.462 19.5487C198.394 20.205 199.085 21.2128 199.536 22.5722L196.021 23.3544C195.897 22.9618 195.769 22.6747 195.634 22.4931C195.411 22.1884 195.139 21.954 194.816 21.7899C194.494 21.6259 194.134 21.5439 193.735 21.5439C192.833 21.5439 192.142 21.9071 191.661 22.6337C191.298 23.1728 191.116 24.0194 191.116 25.1737C191.116 26.6034 191.333 27.5849 191.767 28.1181C192.2 28.6454 192.81 28.9091 193.595 28.9091C194.356 28.9091 194.931 28.6952 195.317 28.2675C195.71 27.8398 195.994 27.2187 196.17 26.4042ZM205.592 23.7499H207.719C209.67 23.7499 211.117 24.0956 212.061 24.787C213.004 25.4726 213.476 26.5419 213.476 27.995C213.476 29.1845 213.042 30.0956 212.175 30.7284C211.313 31.3554 210.074 31.6689 208.457 31.6689H201.619V18.7841H205.592V23.7499ZM205.592 28.9003H207.631C208.879 28.9003 209.503 28.4491 209.503 27.5468C209.503 26.7558 208.879 26.3603 207.631 26.3603H205.592V28.9003Z" fill="white"/>
<rect x="0.5" y="1.16885" width="271" height="47" rx="7.5" stroke="#4E4E4E"/>
</svg>
