<svg width="137" height="26" viewBox="0 0 137 26" fill="none" xmlns="http://www.w3.org/2000/svg">
<rect x="1" y="0.668854" width="134.41" height="24" rx="8" fill="#FFCF56"/>
<path d="M18.4688 7.21573H27.4766V18.6689H25.9531V8.56729H19.9844V18.6689H18.4688V7.21573ZM29.4922 13.0907C29.4922 11.1897 30.0026 9.70271 31.0234 8.62979C32.0443 7.55167 33.362 7.0126 34.9766 7.0126C36.0339 7.0126 36.987 7.26521 37.8359 7.77042C38.6849 8.27562 39.3307 8.98135 39.7734 9.8876C40.2214 10.7886 40.4453 11.8121 40.4453 12.9579C40.4453 14.1194 40.2109 15.1584 39.7422 16.0751C39.2734 16.9918 38.6094 17.6871 37.75 18.161C36.8906 18.6298 35.9635 18.8642 34.9688 18.8642C33.8906 18.8642 32.9271 18.6037 32.0781 18.0829C31.2292 17.5621 30.5859 16.8511 30.1484 15.9501C29.7109 15.0491 29.4922 14.0959 29.4922 13.0907ZM31.0547 13.1142C31.0547 14.4944 31.4245 15.5829 32.1641 16.3798C32.9089 17.1715 33.8411 17.5673 34.9609 17.5673C36.1016 17.5673 37.0391 17.1662 37.7734 16.3642C38.513 15.5621 38.8828 14.4241 38.8828 12.9501C38.8828 12.0178 38.724 11.2053 38.4062 10.5126C38.0938 9.81469 37.6328 9.27562 37.0234 8.89542C36.4193 8.51 35.7396 8.31729 34.9844 8.31729C33.9115 8.31729 32.987 8.68708 32.2109 9.42667C31.4401 10.161 31.0547 11.3902 31.0547 13.1142ZM50.5781 14.6532L52.0938 15.036C51.776 16.2808 51.2031 17.2314 50.375 17.8876C49.5521 18.5386 48.5443 18.8642 47.3516 18.8642C46.1172 18.8642 45.112 18.6142 44.3359 18.1142C43.5651 17.609 42.9766 16.8798 42.5703 15.9267C42.1693 14.9735 41.9688 13.9501 41.9688 12.8564C41.9688 11.6636 42.1953 10.6246 42.6484 9.73917C43.1068 8.84854 43.7552 8.17406 44.5938 7.71573C45.4375 7.25219 46.3646 7.02042 47.375 7.02042C48.5208 7.02042 49.4844 7.31208 50.2656 7.89542C51.0469 8.47875 51.5911 9.29906 51.8984 10.3564L50.4062 10.7079C50.1406 9.87458 49.7552 9.26781 49.25 8.8876C48.7448 8.5074 48.1094 8.31729 47.3438 8.31729C46.4635 8.31729 45.7266 8.52823 45.1328 8.9501C44.5443 9.37198 44.1302 9.93969 43.8906 10.6532C43.651 11.3616 43.5312 12.0933 43.5312 12.8485C43.5312 13.8225 43.6719 14.6741 43.9531 15.4032C44.2396 16.1272 44.6823 16.6689 45.2812 17.0282C45.8802 17.3876 46.5286 17.5673 47.2266 17.5673C48.0755 17.5673 48.7943 17.3225 49.3828 16.8329C49.9714 16.3433 50.3698 15.6168 50.5781 14.6532ZM54.2734 7.21573H61.4453V18.6689H59.9297V8.56729H55.7891V14.4657C55.7891 15.6636 55.7318 16.5412 55.6172 17.0985C55.5078 17.6558 55.2734 18.0907 54.9141 18.4032C54.5547 18.7105 54.099 18.8642 53.5469 18.8642C53.2135 18.8642 52.8125 18.8017 52.3438 18.6767L52.6016 17.3329C52.8516 17.4371 53.0651 17.4892 53.2422 17.4892C53.5859 17.4892 53.8438 17.3616 54.0156 17.1064C54.1875 16.8459 54.2734 16.2366 54.2734 15.2782V7.21573ZM63.9688 18.6689V7.21573H72.25V8.56729H65.4844V12.0751H71.8203V13.4189H65.4844V17.3173H72.5156V18.6689H63.9688ZM75.6484 7.21573H82.6172V17.3173H83.6484V21.3407H82.2969V18.6689H74.7266V21.3407H73.375V17.3173H74.2656C75.1875 15.9267 75.6484 13.1168 75.6484 8.8876V7.21573ZM81.1016 8.56729H77.1094V9.15323C77.1094 10.1272 77.0208 11.4605 76.8438 13.1532C76.6719 14.8407 76.3307 16.2287 75.8203 17.3173H81.1016V8.56729ZM85.5 18.6689V7.21573H87.0156V11.9189H92.9688V7.21573H94.4844V18.6689H92.9688V13.2704H87.0156V18.6689H85.5ZM97.0391 7.21573H98.4141V16.286L104.508 7.21573H106.031V18.6689H104.656V9.62198L98.5547 18.6689H97.0391V7.21573ZM108.539 7.21573H109.914V16.286L116.008 7.21573H117.531V18.6689H116.156V9.62198L110.055 18.6689H108.539V7.21573ZM114.234 4.48917H115.195C115.117 5.14021 114.878 5.64021 114.477 5.98917C114.081 6.33812 113.552 6.5126 112.891 6.5126C112.224 6.5126 111.69 6.34073 111.289 5.99698C110.893 5.64802 110.656 5.14542 110.578 4.48917H111.539C111.612 4.84333 111.755 5.10896 111.969 5.28604C112.188 5.45792 112.479 5.54385 112.844 5.54385C113.266 5.54385 113.583 5.46052 113.797 5.29385C114.016 5.12198 114.161 4.85375 114.234 4.48917Z" fill="#2F2F2F"/>
</svg>
