<svg width="112" height="26" viewBox="0 0 112 26" fill="none" xmlns="http://www.w3.org/2000/svg">
<rect x="1" y="0.668854" width="110" height="24" rx="8" fill="#FDCFF3"/>
<path d="M18.4062 18.6689V7.21573H19.9219V11.9189H25.875V7.21573H27.3906V18.6689H25.875V13.2704H19.9219V18.6689H18.4062ZM29.4609 13.0907C29.4609 11.1897 29.9714 9.70271 30.9922 8.62979C32.013 7.55167 33.3307 7.0126 34.9453 7.0126C36.0026 7.0126 36.9557 7.26521 37.8047 7.77042C38.6536 8.27562 39.2995 8.98135 39.7422 9.8876C40.1901 10.7886 40.4141 11.8121 40.4141 12.9579C40.4141 14.1194 40.1797 15.1584 39.7109 16.0751C39.2422 16.9918 38.5781 17.6871 37.7188 18.161C36.8594 18.6298 35.9323 18.8642 34.9375 18.8642C33.8594 18.8642 32.8958 18.6037 32.0469 18.0829C31.1979 17.5621 30.5547 16.8511 30.1172 15.9501C29.6797 15.0491 29.4609 14.0959 29.4609 13.0907ZM31.0234 13.1142C31.0234 14.4944 31.3932 15.5829 32.1328 16.3798C32.8776 17.1715 33.8099 17.5673 34.9297 17.5673C36.0703 17.5673 37.0078 17.1662 37.7422 16.3642C38.4818 15.5621 38.8516 14.4241 38.8516 12.9501C38.8516 12.0178 38.6927 11.2053 38.375 10.5126C38.0625 9.81469 37.6016 9.27562 36.9922 8.89542C36.388 8.51 35.7083 8.31729 34.9531 8.31729C33.8802 8.31729 32.9557 8.68708 32.1797 9.42667C31.4089 10.161 31.0234 11.3902 31.0234 13.1142ZM42.3125 18.6689V7.21573H46.6094C47.4844 7.21573 48.1849 7.33292 48.7109 7.56729C49.2422 7.79646 49.6562 8.15323 49.9531 8.6376C50.2552 9.11677 50.4062 9.61937 50.4062 10.1454C50.4062 10.635 50.2734 11.0959 50.0078 11.5282C49.7422 11.9605 49.3411 12.3095 48.8047 12.5751C49.4974 12.7782 50.0286 13.1246 50.3984 13.6142C50.7734 14.1037 50.9609 14.6819 50.9609 15.3485C50.9609 15.885 50.8464 16.385 50.6172 16.8485C50.3932 17.3069 50.1146 17.661 49.7812 17.911C49.4479 18.161 49.0286 18.3511 48.5234 18.4814C48.0234 18.6064 47.4089 18.6689 46.6797 18.6689H42.3125ZM43.8281 12.0282H46.3047C46.9766 12.0282 47.4583 11.984 47.75 11.8954C48.1354 11.7808 48.4245 11.5907 48.6172 11.3251C48.8151 11.0595 48.9141 10.7261 48.9141 10.3251C48.9141 9.9449 48.8229 9.61156 48.6406 9.3251C48.4583 9.03344 48.1979 8.83552 47.8594 8.73135C47.5208 8.62198 46.9401 8.56729 46.1172 8.56729H43.8281V12.0282ZM43.8281 17.3173H46.6797C47.1693 17.3173 47.513 17.2991 47.7109 17.2626C48.0599 17.2001 48.3516 17.0959 48.5859 16.9501C48.8203 16.8043 49.013 16.5933 49.1641 16.3173C49.3151 16.036 49.3906 15.7131 49.3906 15.3485C49.3906 14.9215 49.2812 14.5517 49.0625 14.2392C48.8438 13.9215 48.5391 13.7001 48.1484 13.5751C47.763 13.4449 47.2057 13.3798 46.4766 13.3798H43.8281V17.3173ZM53.0703 7.21573H54.4453V16.286L60.5391 7.21573H62.0625V18.6689H60.6875V9.62198L54.5859 18.6689H53.0703V7.21573ZM64.5938 18.6689V7.21573H66.1094V11.9189H72.0625V7.21573H73.5781V18.6689H72.0625V13.2704H66.1094V18.6689H64.5938ZM76.1328 7.21573H77.6484V12.2314C78.3411 12.2314 78.8281 12.0985 79.1094 11.8329C79.3906 11.5621 79.75 10.9162 80.1875 9.89542C80.5052 9.14542 80.7656 8.61677 80.9688 8.30948C81.1771 7.99698 81.4714 7.73656 81.8516 7.52823C82.2318 7.31469 82.651 7.20792 83.1094 7.20792C83.6927 7.20792 84 7.21312 84.0312 7.22354V8.53604C83.9792 8.53604 83.8776 8.53344 83.7266 8.52823C83.5599 8.52302 83.4583 8.52042 83.4219 8.52042C82.9375 8.52042 82.5781 8.6376 82.3438 8.87198C82.1042 9.10635 81.8307 9.60635 81.5234 10.372C81.138 11.3407 80.8125 11.9527 80.5469 12.2079C80.2812 12.4579 79.9635 12.6584 79.5938 12.8095C80.3333 13.0126 81.0625 13.6949 81.7812 14.8564L84.1406 18.6689H82.2578L80.3438 15.5595C79.8177 14.7001 79.3776 14.1116 79.0234 13.7939C78.6693 13.4709 78.2109 13.3095 77.6484 13.3095V18.6689H76.1328V7.21573ZM84.1797 18.6689L88.5781 7.21573H90.2109L94.8984 18.6689H93.1719L91.8359 15.2001H87.0469L85.7891 18.6689H84.1797ZM87.4844 13.9657H91.3672L90.1719 10.7939C89.8073 9.83031 89.5365 9.03865 89.3594 8.41885C89.2135 9.15323 89.0078 9.8824 88.7422 10.6064L87.4844 13.9657Z" fill="#2F2F2F"/>
</svg>
